# xmcd
#
# Track frame offsets:
#	150
#	16771
#	34626
#	47464
#	60762
#	75050
#	89083
#	103242
#	119409
#	132487
#	149812
#	164771
#	177934
#	193284
#	209070
#	225399
#	240062
#	253517
#	268264
#	283701
#	297338
#
# Disc length: 4187 seconds
#
# Revision: 1
# Processed by: cddbd v1.5.2PL0 Copyright (c) Steve Scherf et al.
# Submitted via: dBpowerAMP V4.0
#
DISCID=32105915
DTITLE=Various Artist - Hott Country Volume 276 Can
DYEAR=2019
DGENRE=Country
TTITLE0=Maren Morris - Girl
TTITLE1=Tim Hicks - What A Song Should Do
TTITLE2=Dan and Shay - All To Myself
TTITLE3=Chris Young - Raised On Country
TTITLE4=Chad Brownlee - Forever's Gotta Start Somewhere
TTITLE5=Dylan Scott - Nothing To Do Town
TTITLE6=James Barker Band - Keep It Simple
TTITLE7=Travis Denning - After A Few
TTITLE8=Jimmie Allen - Make Me Want To
TTITLE9=Paul Brandt - Lie Like That Again
TTITLE10=Aaron Watson - Kiss That Girl Goodbye
TTITLE11=Chris Henderson - I'll be Your Mountain
TTITLE12=Brantley Gilbert and Lindsay Ell - What Happens In A Small Town
TTITLE13=Black Mountain Whiskey Rebellion - Black Mountain Whiskey Rebellion
TTITLE14=Ryan Langdon - She Knows It
TTITLE15=Samara Yung - Swerve
TTITLE16=Ryan Hurd - To A T
TTITLE17=Brody Siebert - Goodbye Drunk
TTITLE18=Ryan Keown - While I Was Away
TTITLE19=Logan Mize - Better Off Gone
TTITLE20=Band Steele, The - Sit Awhile
EXTD=
EXTT0=
EXTT1=
EXTT2=
EXTT3=
EXTT4=
EXTT5=
EXTT6=
EXTT7=
EXTT8=
EXTT9=
EXTT10=
EXTT11=
EXTT12=
EXTT13=
EXTT14=
EXTT15=
EXTT16=
EXTT17=
EXTT18=
EXTT19=
EXTT20=
PLAYORDER=
